<svg xmlns="http://www.w3.org/2000/svg" viewBox="0 0 800 500" fill="none" aria-hidden="true" preserveAspectRatio="xMidYMid slice">
  <rect width="800" height="500" fill="#002814"/>

  <g stroke="#7a9374" stroke-width="1.4" fill="none" opacity="0.55">
    <line x1="200" y1="170" x2="380" y2="120"/>
    <line x1="380" y1="120" x2="580" y2="180"/>
    <line x1="200" y1="170" x2="340" y2="290"/>
    <line x1="380" y1="120" x2="340" y2="290"/>
    <line x1="340" y1="290" x2="580" y2="180"/>
    <line x1="340" y1="290" x2="520" y2="400"/>
    <line x1="580" y1="180" x2="520" y2="400"/>
    <line x1="200" y1="170" x2="170" y2="370"/>
    <line x1="170" y1="370" x2="340" y2="290"/>
    <line x1="170" y1="370" x2="520" y2="400"/>
  </g>

  <g>
    <circle cx="200" cy="170" r="46" fill="#7a9374" opacity="0.9"/>
    <g fill="#edf5e9">
      <circle cx="187" cy="162" r="3"/>
      <circle cx="213" cy="162" r="3"/>
      <circle cx="200" cy="180" r="3"/>
    </g>

    <circle cx="380" cy="120" r="56" fill="#97b090" opacity="0.95"/>
    <g fill="#002814" opacity="0.85">
      <rect x="362" y="100" width="9" height="9" rx="1.5"/>
      <rect x="376" y="100" width="9" height="9" rx="1.5"/>
      <rect x="390" y="100" width="9" height="9" rx="1.5"/>
      <rect x="362" y="115" width="9" height="9" rx="1.5"/>
      <rect x="376" y="115" width="9" height="9" rx="1.5"/>
      <rect x="390" y="115" width="9" height="9" rx="1.5"/>
      <rect x="362" y="130" width="9" height="9" rx="1.5"/>
      <rect x="376" y="130" width="9" height="9" rx="1.5"/>
      <rect x="390" y="130" width="9" height="9" rx="1.5"/>
    </g>

    <circle cx="580" cy="180" r="42" fill="#c7dbc0" opacity="0.95"/>
    <path d="M564 178 L580 162 L596 178 L580 198 Z" fill="#34522a"/>

    <circle cx="340" cy="290" r="52" fill="#34522a" opacity="0.98"/>
    <g stroke="#edf5e9" stroke-width="1.6" fill="none" stroke-linecap="round" opacity="0.85">
      <path d="M312 285 Q335 270 360 290 Q345 305 320 295"/>
      <path d="M312 295 Q340 282 365 295"/>
    </g>

    <circle cx="170" cy="370" r="40" fill="#426a45" opacity="0.88"/>
    <g fill="#edf5e9" opacity="0.7">
      <rect x="155" y="362" width="30" height="3" rx="1.5"/>
      <rect x="155" y="370" width="22" height="3" rx="1.5"/>
      <rect x="155" y="378" width="26" height="3" rx="1.5"/>
    </g>

    <circle cx="520" cy="400" r="48" fill="#7a9374" opacity="0.9"/>
    <g fill="#edf5e9" opacity="0.85">
      <rect x="497" y="395" width="6" height="14" rx="1"/>
      <rect x="507" y="389" width="6" height="20" rx="1"/>
      <rect x="517" y="382" width="6" height="27" rx="1"/>
      <rect x="527" y="376" width="6" height="33" rx="1"/>
      <rect x="537" y="392" width="6" height="17" rx="1"/>
    </g>
  </g>

  <g fill="#7a9374" opacity="0.35">
    <circle cx="100" cy="80" r="2"/>
    <circle cx="700" cy="80" r="2"/>
    <circle cx="120" cy="450" r="2"/>
    <circle cx="680" cy="430" r="2"/>
    <circle cx="60" cy="240" r="2"/>
    <circle cx="730" cy="280" r="2"/>
  </g>
</svg>
