<svg xmlns="http://www.w3.org/2000/svg" viewBox="0 0 800 450" fill="none" aria-hidden="true" preserveAspectRatio="xMidYMid slice">
  <rect width="800" height="450" fill="#edf5e9"/>

  <g transform="translate(0 270)">
    <path d="M150 60 L400 0 L650 60 L400 120 Z" fill="#c7dbc0"/>
    <g fill="#34522a" opacity="0.6">
      <circle cx="245" cy="55" r="4"/>
      <circle cx="315" cy="40" r="4"/>
      <circle cx="385" cy="25" r="4"/>
      <circle cx="455" cy="40" r="4"/>
      <circle cx="525" cy="55" r="4"/>
      <circle cx="285" cy="75" r="4"/>
      <circle cx="355" cy="60" r="4"/>
      <circle cx="425" cy="60" r="4"/>
      <circle cx="495" cy="75" r="4"/>
      <circle cx="325" cy="95" r="4"/>
      <circle cx="395" cy="80" r="4"/>
      <circle cx="465" cy="95" r="4"/>
    </g>
  </g>

  <g transform="translate(0 175)">
    <path d="M150 60 L400 0 L650 60 L400 120 Z" fill="#97b090"/>
    <g stroke="#002814" stroke-width="1.5" fill="none" opacity="0.55" stroke-linecap="round">
      <path d="M225 80 Q335 50 445 65 Q535 75 580 55"/>
      <path d="M245 100 Q355 70 465 85 Q555 95 595 75"/>
      <path d="M265 55 Q360 35 460 50 Q535 60 575 45"/>
    </g>
  </g>

  <g transform="translate(0 80)">
    <path d="M150 60 L400 0 L650 60 L400 120 Z" fill="#7a9374"/>

    <path d="M150 60 L233 40 L317 60 L233 80 Z" fill="#97b090"/>
    <path d="M233 40 L317 20 L400 40 L317 60 Z" fill="#c7dbc0"/>
    <path d="M317 20 L400 0 L483 20 L400 40 Z" fill="#edf5e9"/>

    <path d="M233 80 L317 60 L400 80 L317 100 Z" fill="#426a45"/>
    <path d="M317 60 L400 40 L483 60 L400 80 Z" fill="#002814"/>
    <path d="M400 40 L483 20 L567 40 L483 60 Z" fill="#34522a"/>

    <path d="M317 100 L400 80 L483 100 L400 120 Z" fill="#7a9374"/>
    <path d="M400 80 L483 60 L567 80 L483 100 Z" fill="#426a45"/>
    <path d="M483 60 L567 40 L650 60 L567 80 Z" fill="#97b090"/>

    <g stroke="#edf5e9" stroke-width="0.7" opacity="0.4" fill="none">
      <path d="M150 60 L400 0 L650 60 L400 120 Z"/>
      <path d="M233 40 L317 60 L233 80"/>
      <path d="M317 20 L400 40 L317 60 L400 80 L317 100"/>
      <path d="M400 0 L483 20 L400 40 L483 60 L400 80 L483 100 L400 120"/>
      <path d="M483 20 L567 40 L483 60 L567 80 L483 100"/>
      <path d="M567 40 L650 60 L567 80"/>
    </g>
  </g>

  <g stroke="#34522a" stroke-width="1" opacity="0.3" stroke-dasharray="2 5">
    <line x1="400" y1="150" x2="400" y2="350"/>
  </g>
</svg>
