<svg xmlns="http://www.w3.org/2000/svg" viewBox="0 0 800 600" fill="none" aria-hidden="true" preserveAspectRatio="xMidYMid slice">
  <defs>
    <linearGradient id="bg" x1="0" y1="0" x2="1" y2="1">
      <stop offset="0%" stop-color="#2b4822"/>
      <stop offset="100%" stop-color="#002814"/>
    </linearGradient>
  </defs>

  <rect width="800" height="600" fill="url(#bg)"/>

  <g transform="translate(80 60)">
    <text x="0" y="0" font-family="Arial, sans-serif" font-size="11" letter-spacing="2" fill="#c7dbc0" opacity="0.7">CATALOGUE</text>
    <line x1="0" y1="14" x2="640" y2="14" stroke="#c7dbc0" stroke-width="1" opacity="0.25"/>

    <g transform="translate(0 30)">
      <rect width="80" height="80" rx="10" fill="#97b090" opacity="0.85"/>
      <rect x="16" y="20" width="48" height="6" rx="2" fill="#002814" opacity="0.6"/>
      <rect x="16" y="32" width="36" height="6" rx="2" fill="#002814" opacity="0.4"/>
      <circle cx="40" cy="60" r="10" fill="#002814" opacity="0.5"/>
    </g>

    <g transform="translate(96 30)">
      <rect width="80" height="80" rx="10" fill="#7a9374" opacity="0.85"/>
      <g transform="translate(16 18)" fill="#002814" opacity="0.55">
        <rect width="8" height="8" rx="1"/>
        <rect x="14" width="8" height="8" rx="1"/>
        <rect x="28" width="8" height="8" rx="1"/>
        <rect y="14" width="8" height="8" rx="1"/>
        <rect x="14" y="14" width="8" height="8" rx="1"/>
        <rect x="28" y="14" width="8" height="8" rx="1"/>
        <rect y="28" width="8" height="8" rx="1"/>
        <rect x="14" y="28" width="8" height="8" rx="1"/>
        <rect x="28" y="28" width="8" height="8" rx="1"/>
      </g>
    </g>

    <g transform="translate(192 30)">
      <rect width="80" height="80" rx="10" fill="#c7dbc0" opacity="0.9"/>
      <g stroke="#002814" stroke-width="1.8" fill="none" opacity="0.65">
        <path d="M 16 52 Q 30 40 44 48 T 68 36"/>
        <path d="M 16 62 Q 30 52 44 58 T 68 48"/>
      </g>
      <circle cx="68" cy="36" r="3" fill="#002814" opacity="0.7"/>
    </g>

    <g transform="translate(288 30)">
      <rect width="80" height="80" rx="10" fill="#D6AE3E" opacity="0.85"/>
      <path d="M 40 20 L 56 32 L 56 52 L 40 62 L 24 52 L 24 32 Z" fill="#002814" opacity="0.55"/>
    </g>

    <g transform="translate(384 30)">
      <rect width="80" height="80" rx="10" fill="#426a45" opacity="0.85"/>
      <g fill="#c7dbc0" opacity="0.75">
        <circle cx="22" cy="40" r="4"/>
        <circle cx="40" cy="28" r="4"/>
        <circle cx="40" cy="52" r="4"/>
        <circle cx="58" cy="40" r="4"/>
      </g>
      <g stroke="#c7dbc0" stroke-width="1.4" opacity="0.55">
        <line x1="22" y1="40" x2="40" y2="28"/>
        <line x1="22" y1="40" x2="40" y2="52"/>
        <line x1="40" y1="28" x2="58" y2="40"/>
        <line x1="40" y1="52" x2="58" y2="40"/>
      </g>
    </g>

    <g transform="translate(480 30)">
      <rect width="80" height="80" rx="10" fill="#97b090" opacity="0.6"/>
      <g fill="#002814" opacity="0.5">
        <rect x="16" y="50" width="8" height="14" rx="1"/>
        <rect x="28" y="42" width="8" height="22" rx="1"/>
        <rect x="40" y="34" width="8" height="30" rx="1"/>
        <rect x="52" y="26" width="8" height="38" rx="1"/>
      </g>
    </g>

    <g transform="translate(576 30)">
      <rect width="80" height="80" rx="10" fill="#c7dbc0" opacity="0.55"/>
      <circle cx="40" cy="40" r="22" fill="none" stroke="#002814" stroke-width="2" opacity="0.55"/>
      <path d="M 40 18 L 40 40 L 58 32" stroke="#002814" stroke-width="2" opacity="0.65" stroke-linecap="round" fill="none"/>
    </g>
  </g>

  <g stroke="#c7dbc0" stroke-width="1" stroke-dasharray="2 4" opacity="0.45" fill="none">
    <path d="M 120 170 L 180 280"/>
    <path d="M 216 170 L 240 280"/>
    <path d="M 408 170 L 420 280"/>
    <path d="M 600 170 L 460 280"/>
    <path d="M 312 170 L 660 280"/>
    <path d="M 696 170 L 720 280"/>
  </g>

  <g transform="translate(80 320)">
    <text x="0" y="0" font-family="Arial, sans-serif" font-size="11" letter-spacing="2" fill="#c7dbc0" opacity="0.7">TERRITOIRES</text>
    <line x1="0" y1="14" x2="640" y2="14" stroke="#c7dbc0" stroke-width="1" opacity="0.25"/>

    <g transform="translate(0 36)">
      <rect width="200" height="180" rx="12" fill="#002814" opacity="0.55" stroke="#c7dbc0" stroke-width="1" stroke-opacity="0.25"/>
      <rect x="14" y="16" width="80" height="6" rx="2" fill="#c7dbc0" opacity="0.6"/>
      <g transform="translate(14 36)">
        <rect width="40" height="40" rx="6" fill="#97b090" opacity="0.95"/>
        <rect x="48" width="40" height="40" rx="6" fill="#c7dbc0" opacity="0.85"/>
        <rect y="48" width="40" height="40" rx="6" fill="#97b090" opacity="0.45"/>
        <rect x="48" y="48" width="40" height="40" rx="6" fill="#97b090" opacity="0.45"/>
        <rect x="96" y="48" width="40" height="40" rx="6" fill="#c7dbc0" opacity="0.45"/>
      </g>
      <rect x="14" y="138" width="44" height="20" rx="6" fill="#D6AE3E" opacity="0.65"/>
    </g>

    <g transform="translate(220 36)">
      <rect width="200" height="180" rx="12" fill="#002814" opacity="0.55" stroke="#c7dbc0" stroke-width="1" stroke-opacity="0.25"/>
      <rect x="14" y="16" width="100" height="6" rx="2" fill="#c7dbc0" opacity="0.6"/>
      <g transform="translate(14 36)">
        <rect width="40" height="40" rx="6" fill="#97b090" opacity="0.45"/>
        <rect x="48" width="40" height="40" rx="6" fill="#D6AE3E" opacity="0.85"/>
        <rect x="96" width="40" height="40" rx="6" fill="#426a45" opacity="0.85"/>
        <rect y="48" width="40" height="40" rx="6" fill="#97b090" opacity="0.85"/>
        <rect x="48" y="48" width="40" height="40" rx="6" fill="#97b090" opacity="0.45"/>
        <rect x="96" y="48" width="40" height="40" rx="6" fill="#7a9374" opacity="0.85"/>
        <rect x="144" y="48" width="40" height="40" rx="6" fill="#97b090" opacity="0.45"/>
      </g>
      <rect x="14" y="138" width="66" height="20" rx="6" fill="#D6AE3E" opacity="0.65"/>
    </g>

    <g transform="translate(440 36)">
      <rect width="200" height="180" rx="12" fill="#002814" opacity="0.55" stroke="#c7dbc0" stroke-width="1" stroke-opacity="0.25"/>
      <rect x="14" y="16" width="60" height="6" rx="2" fill="#c7dbc0" opacity="0.6"/>
      <g transform="translate(14 36)">
        <rect width="40" height="40" rx="6" fill="#426a45" opacity="0.85"/>
        <rect x="48" width="40" height="40" rx="6" fill="#97b090" opacity="0.45"/>
        <rect x="96" width="40" height="40" rx="6" fill="#c7dbc0" opacity="0.85"/>
        <rect x="144" width="40" height="40" rx="6" fill="#97b090" opacity="0.45"/>
      </g>
      <rect x="14" y="138" width="30" height="20" rx="6" fill="#D6AE3E" opacity="0.45"/>
    </g>
  </g>
</svg>
