<svg xmlns="http://www.w3.org/2000/svg" viewBox="0 0 800 500" fill="none" aria-hidden="true" preserveAspectRatio="xMidYMax slice">
  <g stroke="#002814" stroke-width="1.6" stroke-dasharray="3 5" opacity="0.55" fill="none" stroke-linecap="round">
    <path d="M 400 250 L 200 110"/>
    <path d="M 400 250 L 600 110"/>
    <path d="M 400 250 L 200 390"/>
    <path d="M 400 250 L 600 390"/>
    <path d="M 70 250 Q 220 250 330 250"/>
    <path d="M 730 250 Q 580 250 470 250"/>
  </g>

  <g transform="translate(70 250)">
    <circle r="26" fill="#002814"/>
    <circle cy="-7" r="9" fill="#D6AE3E"/>
    <path d="M -15 16 Q 0 4 15 16 L 15 22 Q 0 16 -15 22 Z" fill="#D6AE3E"/>
  </g>
  <g transform="translate(730 250)">
    <circle r="26" fill="#002814"/>
    <circle cy="-7" r="9" fill="#D6AE3E"/>
    <path d="M -15 16 Q 0 4 15 16 L 15 22 Q 0 16 -15 22 Z" fill="#D6AE3E"/>
  </g>

  <g transform="translate(400 250)">
    <rect x="-70" y="-58" width="140" height="116" rx="14" fill="#002814"/>
    <g transform="translate(-30 -28)" fill="#D6AE3E">
      <circle cx="0" cy="0" r="2.5"/>
      <circle cx="10" cy="0" r="2.5"/>
      <circle cx="20" cy="0" r="2.5"/>
      <circle cx="30" cy="0" r="2.5"/>
      <circle cx="40" cy="0" r="2.5"/>
      <circle cx="50" cy="0" r="2.5"/>
      <circle cx="60" cy="0" r="2.5"/>
      <circle cx="0" cy="10" r="2.5"/>
      <circle cx="10" cy="10" r="2.5"/>
      <circle cx="20" cy="10" r="2.5"/>
      <circle cx="30" cy="10" r="2.5"/>
      <circle cx="40" cy="10" r="2.5"/>
      <circle cx="50" cy="10" r="2.5"/>
      <circle cx="60" cy="10" r="2.5"/>
      <circle cx="0" cy="20" r="2.5"/>
      <circle cx="10" cy="20" r="2.5"/>
      <circle cx="20" cy="20" r="2.5"/>
      <circle cx="30" cy="20" r="2.5"/>
      <circle cx="40" cy="20" r="2.5"/>
      <circle cx="50" cy="20" r="2.5"/>
      <circle cx="60" cy="20" r="2.5"/>
    </g>
    <rect x="-50" y="22" width="100" height="6" rx="2" fill="#D6AE3E" opacity="0.5"/>
    <rect x="-40" y="36" width="80" height="6" rx="2" fill="#D6AE3E" opacity="0.35"/>
  </g>

  <g transform="translate(150 60)">
    <rect width="100" height="100" rx="10" fill="#002814" opacity="0.92"/>
    <rect x="12" y="12" width="48" height="6" rx="2" fill="#D6AE3E"/>
    <g transform="translate(12 28)">
      <rect width="14" height="14" rx="2" fill="#D6AE3E" opacity="0.35"/>
      <rect x="16" width="14" height="14" rx="2" fill="#D6AE3E" opacity="0.6"/>
      <rect x="32" width="14" height="14" rx="2" fill="#D6AE3E"/>
      <rect x="48" width="14" height="14" rx="2" fill="#D6AE3E" opacity="0.7"/>
      <rect x="64" width="14" height="14" rx="2" fill="#D6AE3E" opacity="0.4"/>
      <rect y="16" width="14" height="14" rx="2" fill="#D6AE3E" opacity="0.7"/>
      <rect x="16" y="16" width="14" height="14" rx="2" fill="#D6AE3E"/>
      <rect x="32" y="16" width="14" height="14" rx="2" fill="#D6AE3E" opacity="0.85"/>
      <rect x="48" y="16" width="14" height="14" rx="2" fill="#D6AE3E" opacity="0.55"/>
      <rect x="64" y="16" width="14" height="14" rx="2" fill="#D6AE3E" opacity="0.3"/>
      <rect y="32" width="14" height="14" rx="2" fill="#D6AE3E" opacity="0.5"/>
      <rect x="16" y="32" width="14" height="14" rx="2" fill="#D6AE3E" opacity="0.8"/>
      <rect x="32" y="32" width="14" height="14" rx="2" fill="#D6AE3E" opacity="0.6"/>
      <rect x="48" y="32" width="14" height="14" rx="2" fill="#D6AE3E" opacity="0.35"/>
      <rect x="64" y="32" width="14" height="14" rx="2" fill="#D6AE3E" opacity="0.2"/>
    </g>
  </g>

  <g transform="translate(550 60)">
    <rect width="100" height="100" rx="10" fill="#002814" opacity="0.92"/>
    <rect x="12" y="12" width="48" height="6" rx="2" fill="#D6AE3E"/>
    <g transform="translate(12 28)">
      <path d="M 0 60 L 14 50 L 28 40 L 44 26 L 60 20 L 76 14" stroke="#D6AE3E" stroke-width="2" fill="none" stroke-linecap="round"/>
      <circle cx="0" cy="60" r="2.5" fill="#D6AE3E"/>
      <circle cx="14" cy="50" r="2.5" fill="#D6AE3E"/>
      <circle cx="28" cy="40" r="2.5" fill="#D6AE3E"/>
      <circle cx="44" cy="26" r="2.5" fill="#D6AE3E"/>
      <circle cx="60" cy="20" r="2.5" fill="#D6AE3E"/>
      <circle cx="76" cy="14" r="2.5" fill="#D6AE3E"/>
    </g>
  </g>

  <g transform="translate(150 340)">
    <rect width="100" height="100" rx="10" fill="#002814" opacity="0.92"/>
    <rect x="12" y="12" width="48" height="6" rx="2" fill="#D6AE3E"/>
    <g transform="translate(12 28)">
      <path d="M 10 12 L 28 6 L 48 16 L 62 8 L 76 22 L 70 46 L 56 56 L 36 52 L 22 60 L 8 44 Z" fill="#D6AE3E" opacity="0.45"/>
      <path d="M 28 24 L 44 20 L 56 32 L 50 44 L 36 44 L 28 36 Z" fill="#D6AE3E" opacity="0.85"/>
    </g>
  </g>

  <g transform="translate(550 340)">
    <rect width="100" height="100" rx="10" fill="#002814" opacity="0.92"/>
    <rect x="12" y="12" width="48" height="6" rx="2" fill="#D6AE3E"/>
    <g transform="translate(12 28)" fill="#D6AE3E">
      <rect x="0" y="38" width="12" height="22" rx="2" opacity="0.5"/>
      <rect x="16" y="22" width="12" height="38" rx="2" opacity="0.7"/>
      <rect x="32" y="30" width="12" height="30" rx="2"/>
      <rect x="48" y="12" width="12" height="48" rx="2" opacity="0.85"/>
      <rect x="64" y="26" width="12" height="34" rx="2" opacity="0.6"/>
    </g>
  </g>
</svg>
