<svg xmlns="http://www.w3.org/2000/svg" viewBox="0 0 800 500" fill="none" aria-hidden="true" preserveAspectRatio="xMidYMax slice">
  <g transform="translate(80 80) rotate(-7)">
    <rect width="280" height="320" rx="14" fill="#002814" opacity="0.22"/>
  </g>

  <g transform="translate(440 90) rotate(7)">
    <rect width="280" height="320" rx="14" fill="#002814" opacity="0.4"/>
  </g>

  <g transform="translate(250 60)">
    <rect width="300" height="360" rx="16" fill="#002814"/>

    <rect x="22" y="26" width="48" height="14" rx="3" fill="#D6AE3E"/>
    <rect x="22" y="48" width="180" height="10" rx="2" fill="#D6AE3E" opacity="0.45"/>

    <g transform="translate(22 90)">
      <rect width="256" height="92" rx="8" fill="#D6AE3E" opacity="0.12"/>
      <g transform="translate(16 16)">
        <rect x="0" y="40" width="22" height="44" rx="2" fill="#D6AE3E" opacity="0.55"/>
        <rect x="30" y="20" width="22" height="64" rx="2" fill="#D6AE3E" opacity="0.7"/>
        <rect x="60" y="50" width="22" height="34" rx="2" fill="#D6AE3E" opacity="0.4"/>
        <rect x="90" y="6" width="22" height="78" rx="2" fill="#D6AE3E"/>
        <rect x="120" y="32" width="22" height="52" rx="2" fill="#D6AE3E" opacity="0.6"/>
        <rect x="150" y="18" width="22" height="66" rx="2" fill="#D6AE3E" opacity="0.85"/>
        <rect x="180" y="46" width="22" height="38" rx="2" fill="#D6AE3E" opacity="0.45"/>
        <rect x="210" y="26" width="22" height="58" rx="2" fill="#D6AE3E" opacity="0.7"/>
      </g>
    </g>

    <rect x="22" y="200" width="120" height="10" rx="2" fill="#D6AE3E" opacity="0.55"/>
    <rect x="22" y="220" width="220" height="8" rx="2" fill="#D6AE3E" opacity="0.3"/>
    <rect x="22" y="236" width="200" height="8" rx="2" fill="#D6AE3E" opacity="0.25"/>
    <rect x="22" y="252" width="170" height="8" rx="2" fill="#D6AE3E" opacity="0.22"/>

    <g transform="translate(22 295)">
      <circle cx="16" cy="16" r="16" fill="#D6AE3E" opacity="0.85"/>
      <circle cx="44" cy="16" r="16" fill="#D6AE3E" opacity="0.7" stroke="#002814" stroke-width="3"/>
      <circle cx="72" cy="16" r="16" fill="#D6AE3E" opacity="0.55" stroke="#002814" stroke-width="3"/>
      <circle cx="100" cy="16" r="16" fill="#D6AE3E" opacity="0.4" stroke="#002814" stroke-width="3"/>
    </g>

    <g transform="translate(190 308)" fill="#D6AE3E">
      <circle cx="0" cy="0" r="2"/>
      <circle cx="8" cy="0" r="2"/>
      <circle cx="16" cy="0" r="2"/>
    </g>
  </g>

  <g stroke="#3f361a" stroke-width="2" fill="none" opacity="0.55" stroke-linecap="round">
    <path d="M 160 460 Q 320 480 400 440" stroke-dasharray="3 5"/>
    <path d="M 640 460 Q 480 480 400 440" stroke-dasharray="3 5"/>
  </g>
  <g fill="#3f361a" opacity="0.7">
    <path d="M 396 444 L 388 432 L 404 432 Z"/>
  </g>
</svg>
