<svg xmlns="http://www.w3.org/2000/svg" viewBox="0 0 550 600" fill="none" aria-hidden="true" preserveAspectRatio="xMidYMid slice">
  <defs>
    <linearGradient id="cbg" x1="0" y1="0" x2="0" y2="1">
      <stop offset="0%" stop-color="#edf5e9"/>
      <stop offset="100%" stop-color="#c7dbc0"/>
    </linearGradient>
  </defs>

  <rect width="550" height="600" fill="url(#cbg)"/>

  <g stroke="#34522a" stroke-width="1.2" fill="none" opacity="0.45" stroke-linecap="round" stroke-dasharray="3 4">
    <line x1="135" y1="135" x2="240" y2="245"/>
    <line x1="415" y1="135" x2="310" y2="245"/>
    <line x1="135" y1="465" x2="240" y2="355"/>
    <line x1="415" y1="465" x2="310" y2="355"/>
  </g>

  <g transform="translate(275 300)">
    <rect x="-90" y="-85" width="180" height="170" rx="14" fill="#ffffff" stroke="#34522a" stroke-width="2"/>

    <text x="0" y="-62" text-anchor="middle" font-family="Arial, sans-serif" font-size="9" font-weight="700" letter-spacing="1.4" fill="#7a9374">TERRITOIRE</text>

    <g transform="translate(-60 -45)">
      <polygon points="30,2 56,17 56,43 30,58 4,43 4,17" fill="#97b090" opacity="0.65"/>
      <polygon points="86,2 112,17 112,43 86,58 60,43 60,17" fill="#c7dbc0" opacity="0.8"/>
      <polygon points="58,28 84,43 84,69 58,84 32,69 32,43" fill="#7a9374" opacity="0.85"/>
      <polygon points="114,28 140,43 140,69 114,84 88,69 88,43" fill="#426a45" opacity="0.85"/>
      <polygon points="30,54 56,69 56,95 30,110 4,95 4,69" fill="#c7dbc0" opacity="0.7"/>
      <polygon points="86,54 112,69 112,95 86,110 60,95 60,69" fill="#97b090" opacity="0.85"/>

      <polygon points="58,28 84,43 84,69 58,84 32,69 32,43" fill="none" stroke="#34522a" stroke-width="2"/>
    </g>

    <text x="0" y="74" text-anchor="middle" font-family="Arial, sans-serif" font-size="11" font-weight="700" fill="#34522a">Projet partagé</text>
  </g>

  <g transform="translate(135 135)">
    <rect x="-85" y="-55" width="170" height="110" rx="12" fill="#ffffff" stroke="#34522a" stroke-width="1.6"/>
    <g transform="translate(-65 -38)">
      <circle cx="14" cy="14" r="14" fill="#426a45" opacity="0.18"/>
      <g fill="none" stroke="#34522a" stroke-width="1.8" stroke-linecap="round">
        <circle cx="14" cy="14" r="6"/>
        <line x1="14" y1="6" x2="14" y2="14"/>
        <line x1="14" y1="14" x2="20" y2="18"/>
      </g>
    </g>
    <text x="-35" y="-28" font-family="Arial, sans-serif" font-size="11" font-weight="700" fill="#34522a">Chef de file</text>
    <text x="-35" y="-13" font-family="Arial, sans-serif" font-size="8" fill="#666666">Pilotage du projet</text>
    <g transform="translate(-65 14)" fill="#7a9374">
      <rect width="128" height="6" rx="2" opacity="0.5"/>
      <rect y="14" width="96" height="6" rx="2" opacity="0.35"/>
    </g>
  </g>

  <g transform="translate(415 135)">
    <rect x="-85" y="-55" width="170" height="110" rx="12" fill="#ffffff" stroke="#34522a" stroke-width="1.6"/>
    <g transform="translate(-65 -38)">
      <circle cx="14" cy="14" r="14" fill="#426a45" opacity="0.18"/>
      <g fill="none" stroke="#34522a" stroke-width="1.8" stroke-linecap="round">
        <path d="M 6 22 L 6 14 L 14 6 L 22 14 L 22 22 Z"/>
        <line x1="14" y1="14" x2="14" y2="22"/>
      </g>
    </g>
    <text x="-35" y="-28" font-family="Arial, sans-serif" font-size="11" font-weight="700" fill="#34522a">Métropole</text>
    <text x="-35" y="-13" font-family="Arial, sans-serif" font-size="8" fill="#666666">Données &amp; usages</text>
    <g transform="translate(-65 14)" fill="#7a9374">
      <rect width="128" height="6" rx="2" opacity="0.5"/>
      <rect y="14" width="82" height="6" rx="2" opacity="0.35"/>
    </g>
  </g>

  <g transform="translate(135 465)">
    <rect x="-85" y="-55" width="170" height="110" rx="12" fill="#ffffff" stroke="#34522a" stroke-width="1.6"/>
    <g transform="translate(-65 -38)">
      <circle cx="14" cy="14" r="14" fill="#426a45" opacity="0.18"/>
      <g fill="none" stroke="#34522a" stroke-width="1.8" stroke-linecap="round">
        <path d="M 6 22 L 14 8 L 22 22 Z"/>
        <line x1="10" y1="16" x2="18" y2="16"/>
      </g>
    </g>
    <text x="-35" y="-28" font-family="Arial, sans-serif" font-size="11" font-weight="700" fill="#34522a">Recherche</text>
    <text x="-35" y="-13" font-family="Arial, sans-serif" font-size="8" fill="#666666">Méthodologie scientifique</text>
    <g transform="translate(-65 14)" fill="#7a9374">
      <rect width="128" height="6" rx="2" opacity="0.5"/>
      <rect y="14" width="104" height="6" rx="2" opacity="0.35"/>
    </g>
  </g>

  <g transform="translate(415 465)">
    <rect x="-85" y="-55" width="170" height="110" rx="12" fill="#ffffff" stroke="#34522a" stroke-width="1.6"/>
    <g transform="translate(-65 -38)">
      <circle cx="14" cy="14" r="14" fill="#426a45" opacity="0.18"/>
      <g fill="none" stroke="#34522a" stroke-width="1.8" stroke-linecap="round">
        <circle cx="14" cy="14" r="8"/>
        <path d="M 11 11 L 17 11 M 11 14 L 17 14 M 11 17 L 17 17"/>
      </g>
    </g>
    <text x="-35" y="-28" font-family="Arial, sans-serif" font-size="11" font-weight="700" fill="#34522a">Financeurs</text>
    <text x="-35" y="-13" font-family="Arial, sans-serif" font-size="8" fill="#666666">CDC · France&#160;2030</text>
    <g transform="translate(-65 14)" fill="#7a9374">
      <rect width="128" height="6" rx="2" opacity="0.5"/>
      <rect y="14" width="72" height="6" rx="2" opacity="0.35"/>
    </g>
  </g>

  <g fill="#34522a" opacity="0.7">
    <circle cx="240" cy="245" r="3"/>
    <circle cx="310" cy="245" r="3"/>
    <circle cx="240" cy="355" r="3"/>
    <circle cx="310" cy="355" r="3"/>
  </g>
</svg>
